<svg width="128" height="240" fill="none" xmlns="http://www.w3.org/2000/svg"><path fill-rule="evenodd" clip-rule="evenodd" d="M17.303.273h92.49c8.87 0 16.061 6.833 16.061 15.262v208.93c0 8.429-7.191 15.262-16.061 15.262h-92.49c-8.87 0-16.061-6.833-16.061-15.262V15.535C1.242 7.106 8.432.273 17.303.273Z" fill="#213648"/><path opacity=".596" fill-rule="evenodd" clip-rule="evenodd" d="M110.151 0h-93.26C12.535.263 8.52 2.235 4.843 5.915c2.364-2.048 6.582-4.79 12.159-4.79h93.035c5.577 0 9.795 2.742 12.159 4.79C118.52 2.235 114.505.263 110.151 0Z" fill="url(#a)" fill-opacity=".65"/><path opacity=".75" fill-rule="evenodd" clip-rule="evenodd" d="M123.331 222.082V16.792c0-5.509-2.04-7.545-3.257-8.852-1.217-1.308-1.269-1.975.48-.988 1.748.988 5.245 3.863 5.245 9.84v205.29c0 5.977-3.497 8.852-5.245 9.839-1.749.987-1.697.32-.48-.987 1.217-1.308 3.257-3.344 3.257-8.852Z" fill="url(#b)"/><path opacity=".75" fill-rule="evenodd" clip-rule="evenodd" d="M3.71 222.082V16.792c0-5.509 2.04-7.545 3.257-8.852 1.217-1.308 1.269-1.975-.48-.988-1.748.988-5.245 3.863-5.245 9.84v205.29c0 5.977 3.497 8.852 5.245 9.839 1.749.987 1.697.32.48-.987-1.217-1.308-3.257-3.344-3.257-8.852Z" fill="url(#c)"/><path fill-rule="evenodd" clip-rule="evenodd" d="M0 49.948a1.2 1.2 0 0 1 2.401 0v28.487a1.2 1.2 0 0 1-2.401 0V49.948ZM124.557 75.141a1.201 1.201 0 0 1 2.401 0v20.135a1.2 1.2 0 1 1-2.401 0V75.141Z" fill="#2E423C"/><path fill-rule="evenodd" clip-rule="evenodd" d="M52.561 5.973H16.575c-5.371 0-9.284 3.63-9.284 8.372v202.747c0 6.182 6.046 11.66 12.884 11.66h86.734c6.586 0 12.884-5.52 12.884-11.66V14.893c0-5.683-4.251-8.886-9.284-8.92H73.952c-.138.023-2.65 1.047-3.711 3.63-1.061 2.584-3.197 4.643-5.535 4.643H61.99c-1.111 0-4.037-1.07-5.519-4.642-1.481-3.573-3.771-3.608-3.91-3.63Z" fill="#fff"/><mask id="d" style="mask-type:alpha" maskUnits="userSpaceOnUse" x="7" y="5" width="113" height="224"><path fill-rule="evenodd" clip-rule="evenodd" d="M52.561 5.973H16.575c-5.371 0-9.284 3.63-9.284 8.372v202.747c0 6.182 6.046 11.66 12.884 11.66h86.734c6.586 0 12.884-5.52 12.884-11.66V14.893c0-5.683-4.251-8.886-9.284-8.92H73.952c-.138.023-2.65 1.047-3.711 3.63-1.061 2.584-3.197 4.643-5.535 4.643H61.99c-1.111 0-4.037-1.07-5.519-4.642-1.481-3.573-3.771-3.608-3.91-3.63Z" fill="#fff"/></mask><g mask="url(#d)"><path fill="url(#e)" d="M7 6h113v223H7z"/><path fill-rule="evenodd" clip-rule="evenodd" d="M58.761 65.31v1.89h-8.218v-1.674c0-.564.106-1.051.318-1.463a3.6 3.6 0 0 1 .84-1.076c.347-.304.73-.572 1.145-.802.415-.23.831-.448 1.25-.653.417-.205.8-.41 1.148-.618.349-.208.629-.44.84-.695.211-.256.317-.558.317-.907 0-.445-.156-.808-.468-1.09-.312-.282-.739-.422-1.28-.422-.563 0-1.04.16-1.432.483-.392.323-.635.81-.728 1.46h-2.159c.01-.707.177-1.348.5-1.924.322-.576.806-1.033 1.45-1.371.645-.338 1.455-.507 2.43-.507.836 0 1.557.14 2.163.422.606.282 1.075.674 1.405 1.175.33.502.495 1.088.495 1.76 0 .557-.103 1.038-.31 1.443-.206.404-.48.75-.82 1.037-.34.286-.714.537-1.122.752-.407.215-.814.415-1.219.6-.405.184-.777.372-1.118.564-.34.192-.614.408-.82.649-.207.24-.31.53-.31.868v.1h5.703Zm-10.764-9.216V67.2h-2.29v-8.318H43.71v-1.267c.64 0 1.157-.06 1.552-.18s.69-.295.886-.523c.196-.227.312-.5.348-.818h1.501Zm14.742 5.76v-2.403h-2.476v2.404h2.476Zm0 2.904v2.396h-2.476v-2.396h2.476Zm8.915 2.442v-2.458h1.725v-1.881h-1.725v-6.767h-2.221l-5.1 6.805v1.843h5.154l-.008 2.458h2.175Zm-5.231-4.34h3.064v-4.07l-3.064 4.07ZM78.61 67.37c.98 0 1.823-.22 2.53-.657.707-.438 1.25-1.098 1.629-1.981.38-.883.569-1.988.569-3.314 0-1.111-.185-2.078-.554-2.9-.368-.821-.897-1.456-1.586-1.904-.689-.448-1.508-.672-2.457-.672-.846 0-1.584.161-2.213.484-.63.322-1.12.768-1.47 1.336-.351.568-.527 1.216-.527 1.943 0 .722.167 1.345.5 1.87.332.525.791.93 1.377 1.214.585.284 1.257.426 2.016.426.418 0 .797-.055 1.137-.165.34-.11.639-.267.894-.469.255-.202.455-.439.6-.71.062.886-.01 1.602-.213 2.15-.204.548-.508.948-.913 1.198-.405.251-.876.377-1.412.377-.485 0-.888-.135-1.207-.403a1.833 1.833 0 0 1-.62-1.049h-2.15c.046.65.26 1.217.641 1.701.382.484.875.86 1.478 1.125.604.267 1.254.4 1.95.4Zm-1.138-6.417c.34.32.787.48 1.339.48.314 0 .62-.07.917-.211.296-.14.54-.319.731-.534.19-.215.286-.438.286-.668.005-.497-.073-.923-.236-1.279a1.873 1.873 0 0 0-.68-.818 1.825 1.825 0 0 0-1.018-.284c-.356 0-.674.082-.952.246a1.74 1.74 0 0 0-.658.691c-.16.297-.24.64-.24 1.03 0 .578.17 1.027.511 1.347Z" fill="#fff"/></g><g clip-path="url(#f)"><rect x="10.244" y="80" width="105.004" height="42.553" rx="2" fill="#FBFCFE"/><path d="M18.115 97.31v-.425h2.735v.425h-1.103v3.19h-.465v-3.19h-1.167Zm3.236 3.19v-3.715h.45v1.51a.85.85 0 0 1 .442-.353c.106-.04.227-.06.366-.06.168 0 .32.032.457.096.137.061.245.15.325.265a.7.7 0 0 1 .12.41v1.847h-.462v-1.755a.427.427 0 0 0-.16-.358.635.635 0 0 0-.413-.127.914.914 0 0 0-.325.057.56.56 0 0 0-.247.17.438.438 0 0 0-.093.288v1.725h-.46Zm3.211-1.185c0 .163.027.312.08.445a.716.716 0 0 0 .248.315c.111.078.25.117.417.117a.762.762 0 0 0 .425-.115.512.512 0 0 0 .23-.332h.438a.884.884 0 0 1-.21.443c-.109.119-.24.21-.393.272-.153.06-.313.09-.48.09a1.25 1.25 0 0 1-.637-.158 1.091 1.091 0 0 1-.43-.452 1.504 1.504 0 0 1-.155-.707c0-.272.046-.51.14-.716.093-.204.228-.364.405-.48a1.16 1.16 0 0 1 .642-.172c.243 0 .45.053.618.157a.991.991 0 0 1 .382.445c.088.19.133.416.133.678v.17h-1.853Zm.003-.313h1.405c0-.148-.025-.281-.075-.4a.612.612 0 0 0-.23-.282.664.664 0 0 0-.385-.105.662.662 0 0 0-.64.415.902.902 0 0 0-.075.373Zm3.603 2.303v-3.39h.46l.005.45a.965.965 0 0 1 .29-.33.946.946 0 0 1 .56-.17c.206 0 .388.047.545.142a.928.928 0 0 1 .37.43c.088.194.132.439.132.736 0 .296-.043.547-.13.752a1.005 1.005 0 0 1-.37.465c-.162.107-.357.16-.585.16a.89.89 0 0 1-.54-.175.976.976 0 0 1-.272-.343v1.273h-.465Zm1.19-1.115a.65.65 0 0 0 .522-.242c.135-.164.203-.417.203-.76 0-.296-.062-.53-.185-.703-.124-.173-.304-.26-.54-.26-.24 0-.422.09-.545.268-.124.176-.185.408-.185.695 0 .184.027.353.082.504a.824.824 0 0 0 .245.363c.109.09.243.135.403.135Zm2.46.36a1.05 1.05 0 0 1-.443-.088.713.713 0 0 1-.303-.257.735.735 0 0 1-.107-.405c0-.287.1-.5.3-.64.2-.14.52-.215.962-.225l.463-.013v-.202a.497.497 0 0 0-.143-.375c-.095-.093-.242-.14-.442-.14a.763.763 0 0 0-.393.105.491.491 0 0 0-.217.335h-.408a.776.776 0 0 1 .143-.425.782.782 0 0 1 .355-.265c.153-.06.334-.09.542-.09.225 0 .412.032.56.095.15.063.262.157.335.28a.86.86 0 0 1 .113.455v1.805h-.395l-.033-.485c-.1.202-.227.342-.382.42a1.114 1.114 0 0 1-.508.115Zm.14-.333a.724.724 0 0 0 .257-.047.92.92 0 0 0 .237-.128.687.687 0 0 0 .17-.182.404.404 0 0 0 .068-.21v-.443l-.385.008a2.025 2.025 0 0 0-.495.06.585.585 0 0 0-.298.172.466.466 0 0 0-.097.308c0 .145.05.258.15.34a.605.605 0 0 0 .392.122Zm2.139 1.108a1.03 1.03 0 0 1-.313-.032l-.085-.033v-.3l.263.005a.848.848 0 0 0 .24-.02.46.46 0 0 0 .152-.067.32.32 0 0 0 .087-.095.761.761 0 0 0 .053-.1l.09-.246-1.01-2.522h.468l.762 1.995.758-1.995h.452l-1.09 2.78a1.307 1.307 0 0 1-.225.383.683.683 0 0 1-.275.192.937.937 0 0 1-.328.055Zm2.41-.825v-2.585h.446v.375c.071-.113.17-.213.294-.297a.85.85 0 0 1 .488-.128.911.911 0 0 1 .555.19c.082.063.145.14.19.232a.894.894 0 0 1 .325-.305.914.914 0 0 1 .462-.117c.09 0 .185.014.283.043a.733.733 0 0 1 .48.433c.053.12.08.277.08.469v1.69h-.465v-1.645a.721.721 0 0 0-.075-.362.416.416 0 0 0-.197-.183.635.635 0 0 0-.258-.053.769.769 0 0 0-.255.048.525.525 0 0 0-.23.16.462.462 0 0 0-.095.307v1.728h-.46v-1.78a.394.394 0 0 0-.083-.255.504.504 0 0 0-.202-.155.595.595 0 0 0-.24-.053.734.734 0 0 0-.267.053.54.54 0 0 0-.226.168.458.458 0 0 0-.09.294v1.728h-.46Zm4.657-1.185c0 .163.026.312.08.445a.716.716 0 0 0 .247.315c.112.078.251.117.418.117a.762.762 0 0 0 .425-.115.513.513 0 0 0 .23-.332H43a.884.884 0 0 1-.21.443c-.108.119-.239.21-.392.272-.154.06-.314.09-.48.09a1.25 1.25 0 0 1-.638-.158 1.09 1.09 0 0 1-.43-.452 1.502 1.502 0 0 1-.155-.707c0-.272.047-.51.14-.716.093-.204.229-.364.405-.48a1.16 1.16 0 0 1 .643-.172c.243 0 .449.053.617.157a.991.991 0 0 1 .383.445c.088.19.132.416.132.678v.17h-1.852Zm.002-.313h1.405c0-.148-.025-.281-.075-.4a.612.612 0 0 0-.23-.282.664.664 0 0 0-.385-.105.662.662 0 0 0-.64.415.902.902 0 0 0-.075.373Zm2.485 1.498v-2.585h.448v.375a.8.8 0 0 1 .172-.203.884.884 0 0 1 .27-.152c.107-.038.23-.058.368-.058.163 0 .313.033.45.098a.747.747 0 0 1 .33.305c.083.137.125.313.125.53v1.69h-.463v-1.645c0-.202-.053-.35-.16-.448a.576.576 0 0 0-.41-.147.921.921 0 0 0-.327.057.56.56 0 0 0-.248.17.426.426 0 0 0-.095.285v1.728h-.46Zm4.077-2.248h-.583v1.608c0 .092.01.159.028.202a.14.14 0 0 0 .097.08c.047.012.11.018.19.018h.283v.31a.668.668 0 0 1-.145.03 1.923 1.923 0 0 1-.237.013.965.965 0 0 1-.415-.073.413.413 0 0 1-.208-.215.94.94 0 0 1-.057-.35v-1.623h-.42v-.337h.432l.113-.753h.34v.75h.582v.34Zm1.817 2.248v-3.715h.45v1.51a.85.85 0 0 1 .443-.353c.104-.04.226-.06.364-.06.168 0 .32.032.458.096.136.061.245.15.325.265a.7.7 0 0 1 .12.41v1.847h-.463v-1.755a.427.427 0 0 0-.16-.358.635.635 0 0 0-.412-.127.914.914 0 0 0-.325.057.56.56 0 0 0-.248.17.438.438 0 0 0-.092.288v1.725h-.46Zm3.586.05c-.167 0-.315-.029-.443-.088a.712.712 0 0 1-.302-.257.735.735 0 0 1-.108-.405c0-.287.1-.5.3-.64.2-.14.521-.215.963-.225l.462-.013v-.202a.497.497 0 0 0-.142-.375c-.095-.093-.243-.14-.443-.14a.763.763 0 0 0-.392.105.49.49 0 0 0-.218.335h-.407a.776.776 0 0 1 .142-.425.782.782 0 0 1 .355-.265c.153-.06.334-.09.543-.09.225 0 .411.032.56.095.15.063.261.157.335.28a.86.86 0 0 1 .112.455v1.805h-.395l-.032-.485c-.1.202-.228.342-.383.42a1.114 1.114 0 0 1-.507.115Zm.14-.333a.724.724 0 0 0 .257-.047.921.921 0 0 0 .238-.128.688.688 0 0 0 .17-.182.406.406 0 0 0 .067-.21v-.443l-.385.008a2.024 2.024 0 0 0-.495.06.584.584 0 0 0-.297.172.466.466 0 0 0-.098.308c0 .145.05.258.15.34a.605.605 0 0 0 .393.122Zm2.84.333c-.18 0-.347-.027-.502-.083a.907.907 0 0 1-.383-.262.887.887 0 0 1-.192-.457h.42a.569.569 0 0 0 .125.254.597.597 0 0 0 .23.153.88.88 0 0 0 .3.05.799.799 0 0 0 .42-.098.326.326 0 0 0 .16-.3.307.307 0 0 0-.085-.227.5.5 0 0 0-.258-.127l-.534-.133a1.184 1.184 0 0 1-.5-.235.556.556 0 0 1-.188-.447.713.713 0 0 1 .107-.4.742.742 0 0 1 .33-.273c.147-.067.33-.1.548-.1.28 0 .506.063.677.19.174.125.264.31.27.552h-.407a.422.422 0 0 0-.168-.292.595.595 0 0 0-.377-.11c-.165 0-.3.033-.402.1-.104.065-.155.167-.155.305 0 .092.036.164.11.218a.977.977 0 0 0 .325.13l.517.13a.97.97 0 0 1 .295.125c.078.051.14.109.185.172a.702.702 0 0 1 .127.397c0 .159-.04.295-.12.41a.758.758 0 0 1-.34.265 1.373 1.373 0 0 1-.535.093Zm4.052 0c-.152 0-.28-.02-.385-.06a.787.787 0 0 1-.41-.345 1.111 1.111 0 0 1-.08-.175l-.05.53h-.353v-3.715h.465v1.54a.757.757 0 0 1 .27-.293.979.979 0 0 1 .578-.167c.323 0 .58.113.77.338.192.224.287.556.287.995 0 .271-.04.509-.122.712a1.029 1.029 0 0 1-.365.472 1.037 1.037 0 0 1-.605.168Zm-.083-.355a.63.63 0 0 0 .513-.242c.132-.164.197-.423.197-.778 0-.302-.061-.535-.185-.7-.121-.167-.3-.25-.535-.25a.7.7 0 0 0-.415.113.644.644 0 0 0-.23.322 1.65 1.65 0 0 0-.075.515c0 .362.056.623.168.782.113.159.3.238.562.238Zm2.11-.88c0 .163.026.312.08.445a.716.716 0 0 0 .247.315c.111.078.25.117.417.117a.762.762 0 0 0 .425-.115.513.513 0 0 0 .23-.332h.438a.884.884 0 0 1-.21.443c-.109.119-.24.21-.393.272-.153.06-.313.09-.48.09a1.25 1.25 0 0 1-.637-.158 1.09 1.09 0 0 1-.43-.452 1.502 1.502 0 0 1-.155-.707c0-.272.046-.51.14-.716.093-.204.228-.364.405-.48a1.16 1.16 0 0 1 .642-.172c.243 0 .45.053.618.157a.991.991 0 0 1 .382.445c.088.19.133.416.133.678v.17h-1.853Zm.002-.313h1.405c0-.148-.025-.281-.075-.4a.612.612 0 0 0-.23-.282.664.664 0 0 0-.385-.105.662.662 0 0 0-.64.415.902.902 0 0 0-.075.373Zm2.814.313c0 .163.027.312.08.445a.716.716 0 0 0 .248.315c.112.078.25.117.417.117a.762.762 0 0 0 .425-.115.512.512 0 0 0 .23-.332h.438a.883.883 0 0 1-.21.443c-.108.119-.24.21-.393.272-.153.06-.313.09-.48.09a1.25 1.25 0 0 1-.637-.158 1.092 1.092 0 0 1-.43-.452 1.504 1.504 0 0 1-.155-.707c0-.272.047-.51.14-.716.093-.204.228-.364.405-.48a1.16 1.16 0 0 1 .642-.172c.244 0 .45.053.618.157a.99.99 0 0 1 .382.445c.089.19.133.416.133.678v.17h-1.853Zm.003-.313h1.405c0-.148-.025-.281-.075-.4a.611.611 0 0 0-.23-.282.664.664 0 0 0-.385-.105.662.662 0 0 0-.64.415.905.905 0 0 0-.075.373Zm2.485 1.498v-2.585h.447v.375c.042-.072.1-.14.173-.203a.884.884 0 0 1 .27-.152c.106-.038.229-.058.367-.058.164 0 .314.033.45.098a.746.746 0 0 1 .33.305c.084.137.125.313.125.53v1.69h-.462v-1.645c0-.202-.053-.35-.16-.448a.576.576 0 0 0-.41-.147.922.922 0 0 0-.328.057.56.56 0 0 0-.247.17.427.427 0 0 0-.095.285v1.728h-.46Zm4.038.805v-3.39h.46l.005.45a.968.968 0 0 1 .29-.33.946.946 0 0 1 .56-.17c.207 0 .388.047.545.142a.928.928 0 0 1 .37.43c.088.194.132.439.132.736 0 .296-.043.547-.13.752a1.004 1.004 0 0 1-.37.465c-.161.107-.356.16-.585.16a.89.89 0 0 1-.54-.175.976.976 0 0 1-.272-.343v1.273h-.465Zm1.19-1.115a.65.65 0 0 0 .522-.242c.135-.164.203-.417.203-.76 0-.296-.062-.53-.185-.703-.123-.173-.303-.26-.54-.26-.24 0-.422.09-.545.268-.123.176-.185.408-.185.695 0 .184.027.353.082.504a.824.824 0 0 0 .245.363c.109.09.243.135.403.135Zm1.779.31v-2.585h.44v.497a.813.813 0 0 1 .182-.305.757.757 0 0 1 .268-.182.853.853 0 0 1 .427-.052.234.234 0 0 1 .085.024v.448a.775.775 0 0 0-.195-.03c-.103-.007-.2 0-.29.02a.643.643 0 0 0-.237.098.499.499 0 0 0-.163.184.598.598 0 0 0-.057.275v1.608h-.46Zm2.907.05c-.238 0-.447-.051-.625-.153a1.042 1.042 0 0 1-.415-.452 1.627 1.627 0 0 1-.147-.727c0-.27.045-.507.137-.71.092-.204.226-.361.402-.473.179-.113.395-.17.648-.17.238 0 .445.053.62.157.177.104.313.256.41.458.097.202.145.447.145.737 0 .264-.045.496-.135.695-.088.2-.22.357-.395.47a1.165 1.165 0 0 1-.645.168Zm0-.365a.64.64 0 0 0 .392-.118.713.713 0 0 0 .243-.337c.055-.147.082-.32.082-.523 0-.184-.024-.35-.072-.497a.734.734 0 0 0-.233-.352.627.627 0 0 0-.412-.13.66.66 0 0 0-.398.117.71.71 0 0 0-.247.335 1.505 1.505 0 0 0-.083.527c0 .182.025.347.075.496a.75.75 0 0 0 .236.352.64.64 0 0 0 .417.13Zm2.81-2.32c.185 0 .352.036.5.108.148.07.27.17.363.3.095.13.154.283.177.46h-.41a.572.572 0 0 0-.105-.248.577.577 0 0 0-.212-.18.675.675 0 0 0-.31-.068.68.68 0 0 0-.54.24c-.139.16-.208.405-.208.736 0 .298.064.537.19.717.129.178.317.267.565.267a.608.608 0 0 0 .52-.25.607.607 0 0 0 .103-.244h.402a.923.923 0 0 1-.54.744 1.149 1.149 0 0 1-.495.103 1.23 1.23 0 0 1-.617-.153 1.05 1.05 0 0 1-.42-.45 1.587 1.587 0 0 1-.153-.73c0-.27.046-.505.138-.707.093-.203.228-.362.405-.475.178-.113.394-.17.647-.17Zm1.995 1.45c0 .163.027.312.08.445a.716.716 0 0 0 .248.315c.112.078.25.117.418.117a.762.762 0 0 0 .424-.115.513.513 0 0 0 .23-.332h.438a.884.884 0 0 1-.21.443c-.108.119-.24.21-.392.272-.154.06-.314.09-.48.09a1.25 1.25 0 0 1-.638-.158 1.09 1.09 0 0 1-.43-.452 1.502 1.502 0 0 1-.155-.707c0-.272.047-.51.14-.716.093-.204.228-.364.405-.48a1.16 1.16 0 0 1 .642-.172c.244 0 .45.053.618.157a.991.991 0 0 1 .382.445c.089.19.133.416.133.678v.17h-1.853Zm.003-.313h1.405c0-.148-.025-.281-.075-.4a.612.612 0 0 0-.23-.282.664.664 0 0 0-.385-.105.662.662 0 0 0-.64.415.902.902 0 0 0-.075.373Zm3.383 1.548c-.18 0-.348-.027-.503-.083a.907.907 0 0 1-.382-.262.887.887 0 0 1-.193-.457h.42a.569.569 0 0 0 .125.254.597.597 0 0 0 .23.153.88.88 0 0 0 .3.05.799.799 0 0 0 .42-.098.326.326 0 0 0 .16-.3.307.307 0 0 0-.085-.227.5.5 0 0 0-.257-.127l-.535-.133a1.184 1.184 0 0 1-.5-.235.556.556 0 0 1-.188-.447.713.713 0 0 1 .108-.4.742.742 0 0 1 .33-.273c.146-.067.329-.1.547-.1.28 0 .506.063.678.19.173.125.263.31.27.552h-.408a.422.422 0 0 0-.167-.292.595.595 0 0 0-.378-.11c-.165 0-.299.033-.402.1-.103.065-.155.167-.155.305 0 .092.036.164.11.218a.977.977 0 0 0 .325.13l.517.13a.97.97 0 0 1 .295.125c.079.051.14.109.185.172a.702.702 0 0 1 .127.397c0 .159-.04.295-.12.41a.758.758 0 0 1-.34.265 1.373 1.373 0 0 1-.534.093Zm2.514 0c-.18 0-.347-.027-.502-.083a.906.906 0 0 1-.383-.262.886.886 0 0 1-.192-.457h.42a.568.568 0 0 0 .125.254.595.595 0 0 0 .23.153.88.88 0 0 0 .3.05.8.8 0 0 0 .42-.098.326.326 0 0 0 .16-.3.308.308 0 0 0-.085-.227.5.5 0 0 0-.257-.127l-.535-.133a1.183 1.183 0 0 1-.5-.235.556.556 0 0 1-.188-.447.712.712 0 0 1 .108-.4.741.741 0 0 1 .33-.273c.146-.067.329-.1.547-.1.28 0 .506.063.677.19.174.125.264.31.27.552h-.407a.422.422 0 0 0-.167-.292.595.595 0 0 0-.378-.11.73.73 0 0 0-.402.1c-.104.065-.155.167-.155.305 0 .092.036.164.11.218a.976.976 0 0 0 .325.13l.517.13a.97.97 0 0 1 .295.125c.078.051.14.109.185.172a.702.702 0 0 1 .128.397c0 .159-.04.295-.12.41a.759.759 0 0 1-.34.265 1.373 1.373 0 0 1-.535.093Zm1.972-1.235c0 .163.026.312.08.445a.716.716 0 0 0 .247.315c.112.078.25.117.418.117a.762.762 0 0 0 .425-.115.513.513 0 0 0 .23-.332h.437a.884.884 0 0 1-.21.443c-.108.119-.24.21-.392.272-.154.06-.314.09-.48.09a1.25 1.25 0 0 1-.638-.158 1.09 1.09 0 0 1-.43-.452 1.502 1.502 0 0 1-.155-.707c0-.272.047-.51.14-.716.093-.204.228-.364.405-.48a1.16 1.16 0 0 1 .643-.172c.243 0 .449.053.617.157a.991.991 0 0 1 .383.445c.088.19.132.416.132.678v.17h-1.852Zm.002-.313h1.405c0-.148-.025-.281-.075-.4a.612.612 0 0 0-.23-.282.664.664 0 0 0-.385-.105.662.662 0 0 0-.64.415.902.902 0 0 0-.075.373Zm3.417 1.548c-.335 0-.6-.115-.797-.345-.197-.23-.295-.566-.295-1.007 0-.269.04-.503.117-.703.08-.2.199-.355.356-.465a.993.993 0 0 1 .584-.165 1.034 1.034 0 0 1 .578.168.851.851 0 0 1 .27.292v-1.54h.465v3.715h-.352l-.05-.53c-.017.05-.044.108-.08.175a.782.782 0 0 1-.412.345c-.104.04-.232.06-.384.06Zm.083-.355c.262 0 .448-.079.56-.237.113-.16.17-.421.17-.783a1.597 1.597 0 0 0-.077-.515.625.625 0 0 0-.23-.322.688.688 0 0 0-.413-.113.66.66 0 0 0-.52.228c-.133.151-.2.392-.2.722 0 .323.06.574.18.752a.601.601 0 0 0 .53.268Zm1.851.305v-.59h.55v.59h-.55Zm-77.323 3.81v-.425h2.735v.425h-1.103v3.19h-.465v-3.19h-1.167Zm3.236 3.19v-3.715h.45v1.51a.871.871 0 0 1 .442-.353c.106-.04.227-.06.366-.06.168 0 .32.032.457.095.137.062.245.15.325.265a.7.7 0 0 1 .12.41v1.848h-.462v-1.755a.429.429 0 0 0-.16-.358.635.635 0 0 0-.413-.127.92.92 0 0 0-.325.057.567.567 0 0 0-.247.17.438.438 0 0 0-.093.288v1.725h-.46Zm3.211-1.185c0 .163.027.312.08.445a.712.712 0 0 0 .248.315c.111.078.25.117.417.117a.762.762 0 0 0 .425-.115.512.512 0 0 0 .23-.332h.438a.884.884 0 0 1-.21.443c-.109.119-.24.21-.393.272-.153.06-.313.09-.48.09a1.25 1.25 0 0 1-.637-.158 1.091 1.091 0 0 1-.43-.452 1.507 1.507 0 0 1-.155-.708c0-.271.046-.51.14-.715.093-.205.228-.365.405-.48a1.16 1.16 0 0 1 .642-.172c.243 0 .45.052.618.157a.995.995 0 0 1 .382.445c.088.19.133.416.133.678v.17h-1.853Zm.003-.313h1.405c0-.148-.025-.281-.075-.4a.609.609 0 0 0-.23-.282.664.664 0 0 0-.385-.105.664.664 0 0 0-.403.117.72.72 0 0 0-.237.298.9.9 0 0 0-.075.372Zm4.916-.75h-.583v1.608c0 .092.01.159.028.202a.14.14 0 0 0 .098.08c.046.012.11.018.19.018h.282v.31a.67.67 0 0 1-.145.03 1.924 1.924 0 0 1-.238.013.964.964 0 0 1-.415-.073.413.413 0 0 1-.207-.215.938.938 0 0 1-.058-.35v-1.623h-.42v-.337h.433l.112-.753h.34v.75h.583v.34Zm1.623 2.298c-.238 0-.446-.051-.625-.153a1.042 1.042 0 0 1-.415-.452 1.627 1.627 0 0 1-.147-.728c0-.27.046-.506.137-.71a1.06 1.06 0 0 1 .403-.472c.178-.113.394-.17.647-.17.239 0 .445.052.62.157.177.104.314.256.41.458.097.202.145.447.145.737 0 .264-.045.495-.135.695-.088.2-.22.357-.395.47a1.165 1.165 0 0 1-.645.168Zm0-.365a.64.64 0 0 0 .393-.118.712.712 0 0 0 .242-.337c.055-.147.083-.321.083-.523 0-.185-.024-.35-.073-.497a.738.738 0 0 0-.232-.353.63.63 0 0 0-.413-.13c-.156 0-.289.04-.397.118a.71.71 0 0 0-.248.335 1.503 1.503 0 0 0-.082.527c0 .182.025.347.075.495a.75.75 0 0 0 .235.353.64.64 0 0 0 .417.13Zm3.01-1.933h-.582v1.608c0 .092.01.159.028.202a.14.14 0 0 0 .097.08c.047.012.11.018.19.018h.283v.31a.67.67 0 0 1-.145.03 1.924 1.924 0 0 1-.238.013.964.964 0 0 1-.415-.073.413.413 0 0 1-.207-.215.938.938 0 0 1-.058-.35v-1.623h-.42v-.337h.433l.112-.753h.34v.75h.583v.34Zm1.36 2.298c-.166 0-.314-.029-.442-.088a.711.711 0 0 1-.302-.257.735.735 0 0 1-.108-.405c0-.287.1-.5.3-.64.2-.14.52-.215.963-.225l.462-.013v-.202a.498.498 0 0 0-.142-.375c-.096-.093-.243-.14-.443-.14a.769.769 0 0 0-.392.105.49.49 0 0 0-.218.335h-.407a.777.777 0 0 1 .142-.425.78.78 0 0 1 .355-.265c.153-.06.334-.09.543-.09.225 0 .411.032.56.095.15.063.261.157.334.28a.86.86 0 0 1 .113.455v1.805h-.395l-.032-.485c-.1.202-.228.342-.383.42a1.115 1.115 0 0 1-.508.115Zm.14-.333a.725.725 0 0 0 .258-.047.923.923 0 0 0 .237-.128.693.693 0 0 0 .17-.182.405.405 0 0 0 .068-.21v-.443l-.385.008a1.995 1.995 0 0 0-.495.06.588.588 0 0 0-.297.172.468.468 0 0 0-.098.308c0 .145.05.258.15.34a.605.605 0 0 0 .392.122Zm2.62.316a.855.855 0 0 1-.34-.058.476.476 0 0 1-.197-.155.587.587 0 0 1-.093-.223 1.502 1.502 0 0 1-.022-.262v-3.05h.455v3.005c0 .13.025.227.075.292a.29.29 0 0 0 .215.108l.14.002v.3a.898.898 0 0 1-.233.041Zm2.704.017a1.05 1.05 0 0 1-.442-.088.713.713 0 0 1-.303-.257.736.736 0 0 1-.107-.405c0-.287.1-.5.3-.64.2-.14.52-.215.962-.225l.463-.013v-.202a.498.498 0 0 0-.143-.375c-.095-.093-.242-.14-.442-.14a.77.77 0 0 0-.393.105.49.49 0 0 0-.217.335h-.408a.777.777 0 0 1 .143-.425.78.78 0 0 1 .355-.265c.153-.06.334-.09.542-.09.225 0 .412.032.56.095.15.063.262.157.335.28a.86.86 0 0 1 .113.455v1.805h-.395l-.033-.485c-.1.202-.227.342-.382.42a1.114 1.114 0 0 1-.508.115Zm.14-.333a.724.724 0 0 0 .258-.047.92.92 0 0 0 .237-.128.69.69 0 0 0 .17-.182.403.403 0 0 0 .068-.21v-.443l-.385.008a1.996 1.996 0 0 0-.495.06.588.588 0 0 0-.298.172.468.468 0 0 0-.097.308c0 .145.05.258.15.34a.605.605 0 0 0 .392.122Zm1.968.283v-2.585h.445v.375c.071-.113.17-.213.295-.298a.85.85 0 0 1 .487-.127.931.931 0 0 1 .555.19.658.658 0 0 1 .19.232.916.916 0 0 1 .788-.422c.09 0 .184.014.282.042a.742.742 0 0 1 .48.433c.053.122.08.278.08.47v1.69h-.465v-1.645a.722.722 0 0 0-.075-.363.418.418 0 0 0-.197-.182.636.636 0 0 0-.258-.053.762.762 0 0 0-.255.048.527.527 0 0 0-.23.16.46.46 0 0 0-.095.307v1.728h-.46v-1.78a.392.392 0 0 0-.082-.255.507.507 0 0 0-.203-.155.595.595 0 0 0-.24-.053.735.735 0 0 0-.267.053.546.546 0 0 0-.225.167.46.46 0 0 0-.09.295v1.728h-.46Zm5.353.05c-.238 0-.446-.051-.625-.153a1.041 1.041 0 0 1-.415-.452 1.626 1.626 0 0 1-.147-.728c0-.27.046-.506.137-.71.092-.203.226-.36.403-.472.178-.113.394-.17.647-.17.239 0 .445.052.62.157.177.104.314.256.41.458.097.202.145.447.145.737 0 .264-.045.495-.135.695-.088.2-.22.357-.395.47a1.165 1.165 0 0 1-.645.168Zm0-.365a.64.64 0 0 0 .393-.118.713.713 0 0 0 .242-.337c.055-.147.083-.321.083-.523 0-.185-.024-.35-.073-.497a.74.74 0 0 0-.232-.353.63.63 0 0 0-.413-.13c-.156 0-.289.04-.397.118a.709.709 0 0 0-.248.335 1.503 1.503 0 0 0-.082.527c0 .182.025.347.075.495a.75.75 0 0 0 .235.353.64.64 0 0 0 .417.13Zm2.686.365a1.36 1.36 0 0 1-.382-.058.985.985 0 0 1-.315-.167.786.786 0 0 1-.218-.273.89.89 0 0 1-.077-.382v-1.755h.462v1.707c0 .169.052.305.155.41.105.105.263.158.473.158.19 0 .342-.049.457-.148.117-.1.175-.248.175-.445v-1.682h.46v2.585h-.367l-.048-.495a.675.675 0 0 1-.162.315.68.68 0 0 1-.273.177.967.967 0 0 1-.34.053Zm1.946-.05v-2.585h.447v.375a.813.813 0 0 1 .443-.355c.107-.038.23-.058.367-.058.164 0 .314.033.45.098a.747.747 0 0 1 .33.305c.084.137.125.313.125.53v1.69h-.462v-1.645c0-.202-.053-.351-.16-.448a.577.577 0 0 0-.41-.147.928.928 0 0 0-.328.057.569.569 0 0 0-.247.17.427.427 0 0 0-.095.285v1.728h-.46Zm4.077-2.248h-.583v1.608c0 .092.01.159.028.202a.14.14 0 0 0 .097.08c.047.012.11.018.19.018h.283v.31a.668.668 0 0 1-.145.03 1.923 1.923 0 0 1-.238.013.965.965 0 0 1-.415-.073.413.413 0 0 1-.207-.215.94.94 0 0 1-.058-.35v-1.623h-.42v-.337h.433l.112-.753h.34v.75h.583v.34Zm2.686 2.298c-.335 0-.601-.115-.798-.345-.197-.23-.295-.566-.295-1.008 0-.268.04-.502.117-.702.08-.2.199-.355.355-.465a.993.993 0 0 1 .585-.165.99.99 0 0 1 .578.167.894.894 0 0 1 .27.293v-1.54h.465v3.715h-.352l-.05-.53c-.017.05-.044.108-.08.175a.782.782 0 0 1-.413.345c-.103.04-.23.06-.382.06Zm.082-.355c.262 0 .448-.079.56-.238.113-.16.17-.42.17-.782a1.597 1.597 0 0 0-.078-.515.627.627 0 0 0-.23-.323.687.687 0 0 0-.412-.112.662.662 0 0 0-.52.227c-.133.152-.2.393-.2.723 0 .323.06.574.18.752a.6.6 0 0 0 .53.268Zm2.289-.88c0 .163.026.312.08.445a.712.712 0 0 0 .247.315c.112.078.251.117.418.117a.762.762 0 0 0 .425-.115.512.512 0 0 0 .23-.332h.437a.883.883 0 0 1-.21.443c-.108.119-.239.21-.392.272-.154.06-.314.09-.48.09a1.25 1.25 0 0 1-.638-.158 1.092 1.092 0 0 1-.43-.452 1.507 1.507 0 0 1-.155-.708c0-.271.047-.51.14-.715.093-.205.228-.365.405-.48a1.16 1.16 0 0 1 .643-.172c.243 0 .449.052.617.157a.994.994 0 0 1 .383.445c.088.19.132.416.132.678v.17h-1.852Zm.002-.313h1.405c0-.148-.025-.281-.075-.4a.608.608 0 0 0-.23-.282.664.664 0 0 0-.385-.105.664.664 0 0 0-.402.117.72.72 0 0 0-.238.298.903.903 0 0 0-.075.372Zm3.418 1.548c-.335 0-.601-.115-.798-.345-.197-.23-.295-.566-.295-1.008 0-.268.04-.502.117-.702.08-.2.199-.355.356-.465a.993.993 0 0 1 .584-.165.99.99 0 0 1 .578.167.894.894 0 0 1 .27.293v-1.54h.465v3.715h-.352l-.05-.53c-.017.05-.044.108-.08.175a.781.781 0 0 1-.412.345c-.104.04-.232.06-.383.06Zm.082-.355c.262 0 .448-.079.56-.238.113-.16.17-.42.17-.782a1.594 1.594 0 0 0-.078-.515.627.627 0 0 0-.23-.323.687.687 0 0 0-.412-.112.662.662 0 0 0-.52.227c-.133.152-.2.393-.2.723 0 .323.06.574.18.752a.6.6 0 0 0 .53.268Zm2.909.355a1.36 1.36 0 0 1-.383-.058.983.983 0 0 1-.315-.167.784.784 0 0 1-.295-.655v-1.755h.463v1.707c0 .169.051.305.155.41.105.105.262.158.472.158.19 0 .343-.049.458-.148.116-.1.175-.248.175-.445v-1.682h.46v2.585h-.368l-.047-.495a.677.677 0 0 1-.163.315.681.681 0 0 1-.272.177.968.968 0 0 1-.34.053Zm2.941-2.685c.185 0 .352.036.5.107.148.07.27.17.362.3.096.13.155.284.178.46h-.41a.57.57 0 0 0-.105-.247.576.576 0 0 0-.213-.18.674.674 0 0 0-.31-.068.68.68 0 0 0-.54.24c-.138.16-.207.405-.207.735 0 .299.063.538.19.718.128.178.317.267.565.267a.603.603 0 0 0 .623-.495h.402a.922.922 0 0 1-.54.745 1.149 1.149 0 0 1-.495.103 1.23 1.23 0 0 1-.617-.153 1.05 1.05 0 0 1-.42-.45 1.584 1.584 0 0 1-.153-.73c0-.27.046-.505.138-.707.093-.203.228-.362.404-.475.179-.113.395-.17.648-.17Zm2.896.387h-.583v1.608c0 .092.01.159.028.202a.14.14 0 0 0 .097.08c.047.012.11.018.19.018h.283v.31a.668.668 0 0 1-.145.03 1.923 1.923 0 0 1-.238.013.965.965 0 0 1-.415-.073.413.413 0 0 1-.207-.215.94.94 0 0 1-.058-.35v-1.623h-.42v-.337h.433l.112-.753h.34v.75h.583v.34Zm.925 1.063c0 .163.027.312.08.445a.712.712 0 0 0 .248.315c.112.078.25.117.418.117a.762.762 0 0 0 .424-.115.513.513 0 0 0 .23-.332h.438a.884.884 0 0 1-.21.443c-.108.119-.24.21-.392.272-.154.06-.314.09-.48.09a1.25 1.25 0 0 1-.638-.158 1.09 1.09 0 0 1-.43-.452 1.505 1.505 0 0 1-.155-.708c0-.271.047-.51.14-.715.093-.205.228-.365.405-.48a1.16 1.16 0 0 1 .642-.172c.244 0 .45.052.618.157a.995.995 0 0 1 .382.445c.089.19.133.416.133.678v.17h-1.853Zm.003-.313h1.405c0-.148-.025-.281-.075-.4a.609.609 0 0 0-.23-.282.664.664 0 0 0-.385-.105.664.664 0 0 0-.403.117.72.72 0 0 0-.237.298.9.9 0 0 0-.075.372Zm3.417 1.548c-.335 0-.6-.115-.797-.345-.197-.23-.295-.566-.295-1.008 0-.268.039-.502.117-.702.08-.2.199-.355.355-.465a.993.993 0 0 1 .585-.165.991.991 0 0 1 .578.167.897.897 0 0 1 .27.293v-1.54h.465v3.715h-.353l-.05-.53c-.016.05-.043.108-.08.175a.782.782 0 0 1-.412.345c-.103.04-.231.06-.383.06Zm.083-.355c.262 0 .448-.079.56-.238.113-.16.17-.42.17-.782a1.597 1.597 0 0 0-.078-.515.628.628 0 0 0-.23-.323.688.688 0 0 0-.412-.112.661.661 0 0 0-.52.227c-.133.152-.2.393-.2.723 0 .323.06.574.18.752a.6.6 0 0 0 .53.268Zm4.57-2.28v.337h-.627v2.248h-.465v-2.248h-.545v-.337h.545v-.4c0-.205.053-.361.158-.468.105-.108.261-.162.47-.162h.487l.003.327h-.388c-.105 0-.176.029-.215.085a.467.467 0 0 0-.057.258v.36h.635Zm.572 2.585v-2.585h.44v.497a.817.817 0 0 1 .183-.305.765.765 0 0 1 .267-.182.853.853 0 0 1 .428-.052.23.23 0 0 1 .085.024v.448a.297.297 0 0 0-.098-.023.76.76 0 0 0-.097-.007c-.104-.007-.2 0-.29.02a.649.649 0 0 0-.238.097.508.508 0 0 0-.162.185.6.6 0 0 0-.058.275v1.608h-.46Zm2.907.05c-.238 0-.446-.051-.624-.153a1.041 1.041 0 0 1-.416-.452 1.626 1.626 0 0 1-.147-.728c0-.27.046-.506.138-.71.091-.203.225-.36.402-.472.178-.113.394-.17.648-.17.238 0 .444.052.62.157.176.104.313.256.41.458.096.202.144.447.144.737 0 .264-.044.495-.135.695-.088.2-.22.357-.395.47a1.165 1.165 0 0 1-.644.168Zm0-.365a.64.64 0 0 0 .393-.118.713.713 0 0 0 .242-.337c.055-.147.083-.321.083-.523 0-.185-.024-.35-.073-.497a.74.74 0 0 0-.232-.353.63.63 0 0 0-.412-.13c-.157 0-.29.04-.398.118a.709.709 0 0 0-.247.335 1.503 1.503 0 0 0-.083.527c0 .182.025.347.075.495a.75.75 0 0 0 .235.353.64.64 0 0 0 .418.13Zm1.78.315v-2.585h.446v.375c.071-.113.17-.213.295-.298a.85.85 0 0 1 .487-.127.931.931 0 0 1 .555.19.658.658 0 0 1 .19.232.916.916 0 0 1 .787-.422c.09 0 .185.014.283.042a.742.742 0 0 1 .48.433c.053.122.08.278.08.47v1.69h-.465v-1.645a.722.722 0 0 0-.075-.363.418.418 0 0 0-.197-.182.636.636 0 0 0-.258-.053.762.762 0 0 0-.255.048.527.527 0 0 0-.23.16.46.46 0 0 0-.095.307v1.728h-.46v-1.78a.392.392 0 0 0-.082-.255.507.507 0 0 0-.203-.155.595.595 0 0 0-.24-.053.735.735 0 0 0-.267.053.546.546 0 0 0-.225.167.46.46 0 0 0-.09.295v1.728h-.46Zm5.7.825a1.03 1.03 0 0 1-.313-.032l-.085-.033v-.3l.263.005a.848.848 0 0 0 .24-.02.46.46 0 0 0 .152-.067.319.319 0 0 0 .088-.095.761.761 0 0 0 .052-.1l.09-.246-1.01-2.522h.468l.762 1.995.758-1.995h.452l-1.09 2.78a1.303 1.303 0 0 1-.225.383.682.682 0 0 1-.275.192.937.937 0 0 1-.327.055Zm3.346-.775c-.239 0-.447-.051-.625-.153a1.041 1.041 0 0 1-.415-.452 1.626 1.626 0 0 1-.148-.728c0-.27.046-.506.138-.71.091-.203.225-.36.402-.472.178-.113.394-.17.648-.17.238 0 .445.052.62.157.176.104.313.256.41.458.096.202.145.447.145.737 0 .264-.045.495-.135.695-.089.2-.22.357-.395.47a1.165 1.165 0 0 1-.645.168Zm0-.365a.64.64 0 0 0 .392-.118.713.713 0 0 0 .243-.337c.055-.147.082-.321.082-.523 0-.185-.024-.35-.072-.497a.74.74 0 0 0-.233-.353.63.63 0 0 0-.412-.13c-.157 0-.29.04-.398.118a.709.709 0 0 0-.247.335 1.503 1.503 0 0 0-.083.527c0 .182.025.347.075.495a.75.75 0 0 0 .235.353.64.64 0 0 0 .418.13Zm2.686.365a1.364 1.364 0 0 1-.383-.058.986.986 0 0 1-.315-.167.786.786 0 0 1-.217-.273.89.89 0 0 1-.078-.382v-1.755h.463v1.707c0 .169.052.305.155.41.105.105.262.158.472.158.19 0 .343-.049.458-.148.117-.1.175-.248.175-.445v-1.682h.46v2.585h-.368l-.047-.495a.676.676 0 0 1-.163.315.676.676 0 0 1-.272.177.966.966 0 0 1-.34.053Zm1.945-.05v-2.585h.44v.497a.83.83 0 0 1 .183-.305.76.76 0 0 1 .267-.182.856.856 0 0 1 .428-.052.228.228 0 0 1 .085.024v.448a.3.3 0 0 0-.098-.023.747.747 0 0 0-.097-.007c-.103-.007-.2 0-.29.02a.656.656 0 0 0-.238.097.51.51 0 0 0-.162.185.604.604 0 0 0-.058.275v1.608h-.46Zm-83.25 7.05c-.166 0-.314-.029-.442-.088a.712.712 0 0 1-.303-.257.735.735 0 0 1-.107-.405c0-.287.1-.5.3-.64.2-.14.52-.215.962-.225l.463-.013v-.202a.498.498 0 0 0-.142-.375c-.095-.093-.243-.14-.443-.14a.769.769 0 0 0-.393.105.49.49 0 0 0-.217.335h-.407a.777.777 0 0 1 .142-.425.78.78 0 0 1 .355-.265c.153-.06.334-.09.543-.09.224 0 .411.032.56.095.15.063.261.157.334.28a.86.86 0 0 1 .113.455v1.805h-.395l-.032-.485c-.1.202-.228.342-.383.42a1.114 1.114 0 0 1-.508.115Zm.14-.333a.724.724 0 0 0 .258-.047.921.921 0 0 0 .238-.128.691.691 0 0 0 .17-.182.405.405 0 0 0 .067-.21v-.443l-.385.008a1.995 1.995 0 0 0-.495.06.588.588 0 0 0-.297.172.468.468 0 0 0-.098.308c0 .145.05.258.15.34a.605.605 0 0 0 .393.122Zm2.998-2.352c.185 0 .351.036.5.107.148.07.269.17.362.3.095.13.154.284.178.46h-.41a.57.57 0 0 0-.105-.247.577.577 0 0 0-.213-.18.675.675 0 0 0-.31-.068.68.68 0 0 0-.54.24c-.138.16-.207.405-.207.735 0 .299.063.538.19.718.128.178.316.267.565.267a.604.604 0 0 0 .622-.495h.403a.922.922 0 0 1-.54.745 1.149 1.149 0 0 1-.495.103 1.23 1.23 0 0 1-.618-.153 1.05 1.05 0 0 1-.42-.45 1.584 1.584 0 0 1-.152-.73c0-.27.046-.505.137-.707.094-.203.229-.362.405-.475.179-.113.394-.17.648-.17Zm2.695 0c.185 0 .352.036.5.107.148.07.27.17.363.3.095.13.154.284.177.46h-.41a.57.57 0 0 0-.105-.247.577.577 0 0 0-.212-.18.675.675 0 0 0-.31-.068.68.68 0 0 0-.54.24c-.139.16-.208.405-.208.735 0 .299.063.538.19.718.128.178.317.267.565.267a.604.604 0 0 0 .622-.495h.403a.922.922 0 0 1-.54.745 1.149 1.149 0 0 1-.495.103 1.23 1.23 0 0 1-.617-.153 1.05 1.05 0 0 1-.42-.45 1.584 1.584 0 0 1-.153-.73c0-.27.046-.505.138-.707.093-.203.228-.362.405-.475.178-.113.394-.17.647-.17Zm2.693 2.685c-.238 0-.447-.051-.625-.153a1.042 1.042 0 0 1-.415-.452 1.627 1.627 0 0 1-.148-.728c0-.27.046-.506.138-.71a1.06 1.06 0 0 1 .402-.472c.179-.113.395-.17.648-.17.238 0 .445.052.62.157.177.104.313.256.41.458.097.202.145.447.145.737 0 .264-.045.495-.135.695-.088.2-.22.357-.395.47a1.165 1.165 0 0 1-.645.168Zm0-.365a.64.64 0 0 0 .392-.118.712.712 0 0 0 .243-.337c.055-.147.082-.321.082-.523 0-.185-.024-.35-.072-.497a.738.738 0 0 0-.233-.353.63.63 0 0 0-.412-.13c-.157 0-.29.04-.398.118a.71.71 0 0 0-.247.335 1.503 1.503 0 0 0-.083.527c0 .182.025.347.075.495a.75.75 0 0 0 .235.353.64.64 0 0 0 .418.13Zm2.686.365a1.36 1.36 0 0 1-.382-.058.983.983 0 0 1-.315-.167.784.784 0 0 1-.295-.655v-1.755h.462v1.707c0 .169.052.305.155.41.105.105.263.158.473.158.19 0 .342-.049.457-.148.117-.1.175-.248.175-.445v-1.682h.46v2.585h-.367l-.048-.495a.677.677 0 0 1-.162.315.681.681 0 0 1-.273.177.968.968 0 0 1-.34.053Zm1.946-.05v-2.585h.447v.375a.808.808 0 0 1 .443-.355c.106-.038.229-.058.367-.058.163 0 .313.033.45.098a.749.749 0 0 1 .33.305c.083.137.125.313.125.53v1.69h-.462v-1.645c0-.202-.054-.351-.16-.448a.577.577 0 0 0-.41-.147.927.927 0 0 0-.328.057.567.567 0 0 0-.247.17.426.426 0 0 0-.095.285v1.728h-.46Zm4.077-2.248h-.583v1.608c0 .092.01.159.028.202a.14.14 0 0 0 .097.08c.047.012.11.018.19.018h.283v.31a.67.67 0 0 1-.145.03 1.924 1.924 0 0 1-.238.013.964.964 0 0 1-.415-.073.413.413 0 0 1-.207-.215.938.938 0 0 1-.058-.35v-1.623h-.42v-.337h.433l.112-.753h.34v.75h.583v.34Zm2.316-.337v2.585h-.447v-2.585h.447Zm.01-1.028v.48h-.472v-.48h.472Zm1.721 3.663c-.18 0-.347-.027-.502-.083a.907.907 0 0 1-.383-.262.888.888 0 0 1-.192-.458h.42a.57.57 0 0 0 .125.255.596.596 0 0 0 .23.153.88.88 0 0 0 .3.05.8.8 0 0 0 .42-.098.327.327 0 0 0 .16-.3.307.307 0 0 0-.085-.227.504.504 0 0 0-.258-.128l-.535-.132a1.18 1.18 0 0 1-.5-.235.558.558 0 0 1-.187-.448.714.714 0 0 1 .107-.4.742.742 0 0 1 .33-.272c.147-.067.33-.1.548-.1.28 0 .505.063.677.19.173.125.263.309.27.552h-.407a.422.422 0 0 0-.168-.292.597.597 0 0 0-.377-.11c-.165 0-.3.033-.403.1-.103.065-.155.167-.155.305 0 .092.037.164.11.217a.97.97 0 0 0 .325.13l.518.131a.97.97 0 0 1 .295.124c.078.052.14.11.185.173a.699.699 0 0 1 .127.397c0 .159-.04.295-.12.41a.758.758 0 0 1-.34.265 1.373 1.373 0 0 1-.535.093Zm5.616-1.427c0 .291-.048.544-.143.759-.095.214-.249.379-.462.495-.212.116-.493.173-.843.173-.351 0-.633-.058-.845-.175a1.041 1.041 0 0 1-.46-.503 1.948 1.948 0 0 1-.14-.775v-2.212h.743v2.267c0 .27.065.468.195.593.13.123.299.185.507.185.139 0 .261-.027.368-.08a.579.579 0 0 0 .25-.253.938.938 0 0 0 .092-.445v-2.267h.738v2.238Zm2.083 1.427a2.02 2.02 0 0 1-.525-.068 1.65 1.65 0 0 1-.47-.202 1.22 1.22 0 0 1-.353-.338 1.012 1.012 0 0 1-.165-.475h.748a.59.59 0 0 0 .142.278c.07.075.159.132.265.172a1.233 1.233 0 0 0 .72.01.614.614 0 0 0 .265-.15.35.35 0 0 0 .1-.255.317.317 0 0 0-.082-.225.588.588 0 0 0-.218-.142 1.728 1.728 0 0 0-.312-.09l-.625-.127a1.187 1.187 0 0 1-.65-.326c-.16-.166-.243-.388-.248-.665a.951.951 0 0 1 .18-.587c.124-.167.29-.295.5-.385.212-.09.449-.135.71-.135.312 0 .574.049.785.147.214.097.375.229.485.395.112.165.17.35.173.553h-.733a.546.546 0 0 0-.115-.303.53.53 0 0 0-.245-.162 1.058 1.058 0 0 0-.337-.05c-.097 0-.185.011-.265.032a.624.624 0 0 0-.2.093.414.414 0 0 0-.128.137.364.364 0 0 0-.045.18c0 .105.035.19.105.255.07.065.201.119.393.16l.62.128c.222.043.397.107.527.192a.917.917 0 0 1 .425.615c.022.11.033.212.033.305a.833.833 0 0 1-.185.528 1.245 1.245 0 0 1-.51.37c-.218.09-.473.135-.765.135Zm4.531 0c-.433 0-.785-.087-1.055-.26-.27-.175-.425-.444-.465-.808l.76-.015c.04.165.126.291.258.378.133.085.3.127.5.127.12 0 .226-.019.317-.057a.551.551 0 0 0 .22-.16.368.368 0 0 0 .08-.233c0-.133-.042-.232-.127-.297a.999.999 0 0 0-.393-.16l-.592-.127a1.29 1.29 0 0 1-.663-.328c-.165-.165-.249-.386-.252-.663a.941.941 0 0 1 .182-.587 1.2 1.2 0 0 1 .508-.385c.215-.09.456-.135.722-.135.274 0 .51.049.708.147.2.097.353.228.46.393a.93.93 0 0 1 .157.542l-.737.013a.699.699 0 0 0-.16-.378c-.084-.091-.222-.137-.415-.137-.1 0-.19.011-.268.032a.656.656 0 0 0-.202.093.406.406 0 0 0-.13.137.382.382 0 0 0-.043.18c0 .105.035.189.105.25.072.06.206.116.403.168l.582.142c.329.079.565.213.71.403.147.19.22.421.22.692 0 .209-.057.39-.172.545a1.09 1.09 0 0 1-.483.36 1.918 1.918 0 0 1-.735.128Zm-.312-4.183h.632v.65h-.632v-.65Zm-.013 3.96h.63v.651h-.63v-.651Zm2.821.173v-2.708h-.645v-.412c.207 0 .373-.019.5-.058a.603.603 0 0 0 .288-.17.488.488 0 0 0 .112-.267h.485v3.615h-.74ZM58 110.835c.43 0 .769.161 1.017.482.249.32.373.781.373 1.383 0 .598-.123 1.057-.368 1.377-.245.319-.586.478-1.022.478-.439 0-.781-.159-1.028-.478-.245-.318-.367-.776-.367-1.375 0-.4.056-.739.17-1.017.113-.278.274-.489.482-.633.209-.145.456-.217.743-.217Zm0 3.122a.497.497 0 0 0 .472-.287c.1-.193.15-.516.15-.968 0-.461-.05-.792-.152-.992a.5.5 0 0 0-.473-.3c-.213 0-.372.101-.477.302-.103.202-.155.532-.155.99 0 .45.052.772.155.965.103.194.263.29.48.29Zm3.45-3.072h.718v2.203h.557v.612h-.557v.8h-.703l.003-.8h-1.665v-.6l1.647-2.215Zm-.972 2.203h.99v-1.326l-.99 1.326Zm2.639 1.412v-.795h.8v.795h-.8Zm2.647.055c-.225 0-.435-.043-.63-.13a1.233 1.233 0 0 1-.477-.365.995.995 0 0 1-.208-.555h.695c.03.14.097.254.2.342.104.087.234.13.39.13.174 0 .325-.04.455-.122a.736.736 0 0 0 .295-.39c.067-.178.09-.412.07-.7a.731.731 0 0 1-.195.232.935.935 0 0 1-.287.153c-.11.035-.233.052-.368.052-.245 0-.462-.045-.652-.137a1.087 1.087 0 0 1-.445-.395 1.134 1.134 0 0 1-.16-.61c0-.237.056-.448.17-.633.113-.185.272-.33.475-.435.203-.105.442-.157.715-.157.306 0 .57.073.792.22.224.145.395.352.513.62.12.267.18.581.18.942 0 .432-.062.792-.185 1.08a1.358 1.358 0 0 1-.525.645c-.228.142-.501.213-.818.213Zm.065-1.933a.744.744 0 0 0 .532-.242.328.328 0 0 0 .093-.218.957.957 0 0 0-.077-.415.578.578 0 0 0-.547-.36.574.574 0 0 0-.52.305.704.704 0 0 0-.078.335c0 .189.055.335.165.44.11.104.254.155.432.155Zm3.284-1.787c.43 0 .77.161 1.018.482.248.32.372.781.372 1.383 0 .598-.122 1.057-.367 1.377-.245.319-.586.478-1.023.478-.438 0-.78-.159-1.027-.478-.245-.318-.368-.776-.368-1.375 0-.4.057-.739.17-1.017.113-.278.274-.489.483-.633.208-.145.455-.217.742-.217Zm0 3.122a.497.497 0 0 0 .473-.287c.1-.193.15-.516.15-.968 0-.461-.051-.792-.153-.992a.5.5 0 0 0-.472-.3c-.214 0-.373.101-.478.302-.103.202-.155.532-.155.99 0 .45.052.772.155.965.103.194.263.29.48.29Zm1.883.543v-.59h.55v.59h-.55Z" fill="#36536B"/><path fill-rule="evenodd" clip-rule="evenodd" d="M19.909 92.228V90.74l1.211-2.05h-.768l-.792 1.433-.802-1.433h-.761l1.209 2.047v1.49h.703Zm2.627.049c.254 0 .47-.056.65-.167.178-.11.316-.263.411-.458a1.51 1.51 0 0 0 .144-.674c0-.27-.05-.505-.147-.704a1.082 1.082 0 0 0-.417-.461 1.213 1.213 0 0 0-.638-.163c-.246 0-.459.055-.64.166-.18.111-.32.266-.419.465a1.549 1.549 0 0 0-.148.697c0 .266.05.496.148.69.1.194.239.344.42.45.18.106.392.159.636.159Zm-.308-.646a.416.416 0 0 0 .31.115.41.41 0 0 0 .3-.11.644.644 0 0 0 .165-.29c.034-.12.051-.25.051-.392 0-.134-.015-.26-.047-.38a.608.608 0 0 0-.16-.288.423.423 0 0 0-.308-.11.429.429 0 0 0-.3.104.604.604 0 0 0-.167.281 1.483 1.483 0 0 0-.005.773.65.65 0 0 0 .161.297Zm2.897.646c.098 0 .198-.015.3-.046a.64.64 0 0 0 .272-.163.64.64 0 0 0 .163-.342l.082.502h.53v-2.529h-.696v1.646c0 .13-.04.232-.122.304a.475.475 0 0 1-.329.11c-.146 0-.257-.038-.332-.113a.39.39 0 0 1-.113-.289V89.7h-.703v1.749a.74.74 0 0 0 .303.616c.091.07.193.123.305.159.111.036.225.054.34.054Zm2.62-1.433v1.384h-.703v-2.529h.677v.6c.04-.13.097-.243.17-.34a.752.752 0 0 1 .684-.306c.02.003.035.007.044.012v.68a.156.156 0 0 0-.051-.013 1.294 1.294 0 0 0-.408.007.565.565 0 0 0-.239.101.409.409 0 0 0-.132.174.616.616 0 0 0-.041.23Zm2.814 1.384.291-.82h1.252l.285.82h.7l-1.245-3.537h-.741l-1.248 3.537h.706Zm.448-1.443h.927l-.46-1.404-.467 1.404Zm3.217 2.23V91.85c.036.06.077.116.124.167a.843.843 0 0 0 .358.228c.07.022.146.033.226.033a.995.995 0 0 0 .528-.142.95.95 0 0 0 .367-.437c.089-.196.134-.448.134-.754 0-.295-.042-.539-.124-.73a.915.915 0 0 0-.341-.426.898.898 0 0 0-.494-.138.952.952 0 0 0-.458.117.971.971 0 0 0-.179.131.778.778 0 0 0-.136.165l-.002-.364h-.706v3.316h.703Zm.237-1.374c.08.075.18.112.303.112.152 0 .28-.064.384-.193.103-.129.155-.332.155-.611 0-.245-.05-.436-.148-.574a.46.46 0 0 0-.391-.207.441.441 0 0 0-.406.224c-.09.15-.134.335-.134.557 0 .142.02.274.06.396.038.122.098.22.177.296Zm2.67 1.374V91.85c.035.06.077.116.124.167a.843.843 0 0 0 .358.228c.07.022.146.033.226.033a.995.995 0 0 0 .528-.142.95.95 0 0 0 .367-.437c.089-.196.133-.448.133-.754 0-.295-.04-.539-.124-.73a.915.915 0 0 0-.34-.426.898.898 0 0 0-.494-.138.951.951 0 0 0-.458.117.974.974 0 0 0-.18.131.775.775 0 0 0-.135.165l-.003-.364h-.705v3.316h.703Zm.237-1.374c.08.075.18.112.302.112.153 0 .281-.064.385-.193.103-.129.155-.332.155-.611 0-.245-.05-.436-.148-.574a.46.46 0 0 0-.392-.207.441.441 0 0 0-.405.224c-.09.15-.134.335-.134.557 0 .142.02.274.059.396.04.122.099.22.178.296Z" fill="#BA4270"/><path opacity=".5" fill-rule="evenodd" clip-rule="evenodd" d="M88.553 92.174c-.107.068-.258.103-.454.103-.124 0-.24-.015-.348-.044a2.137 2.137 0 0 1-.216-.066l.032-.433c.05.018.107.04.172.067.065.027.145.04.242.04.157 0 .265-.044.324-.132.058-.088.088-.236.088-.445v-2.573h.445v2.703c0 .187-.02.347-.062.48a.535.535 0 0 1-.223.3Zm2.266.05a.926.926 0 0 1-.329.053 1.254 1.254 0 0 1-.367-.058.924.924 0 0 1-.305-.162.756.756 0 0 1-.208-.268.862.862 0 0 1-.076-.373v-1.717h.446v1.67c0 .165.05.299.15.401.1.103.252.154.454.154a.65.65 0 0 0 .442-.145c.112-.097.168-.242.168-.434v-1.646h.443v2.529h-.354l-.046-.484a.67.67 0 0 1-.155.308.66.66 0 0 1-.263.172Zm2.398.053c.202 0 .374-.03.516-.092a.736.736 0 0 0 .328-.26.737.737 0 0 0 .087-.594.613.613 0 0 0-.094-.194.692.692 0 0 0-.179-.169.943.943 0 0 0-.285-.122l-.499-.127a.913.913 0 0 1-.313-.129.247.247 0 0 1-.106-.211c0-.136.05-.235.15-.3a.703.703 0 0 1 .387-.096c.153 0 .275.035.365.106a.42.42 0 0 1 .16.287h.393c-.006-.238-.093-.418-.259-.541-.166-.123-.384-.185-.654-.185-.21 0-.386.033-.527.098a.717.717 0 0 0-.318.266.706.706 0 0 0-.104.392c0 .187.06.333.18.438.121.104.282.18.483.23l.515.129a.492.492 0 0 1 .25.123.31.31 0 0 1 .08.224c0 .132-.051.23-.154.294a.76.76 0 0 1-.405.095.81.81 0 0 1-.289-.05.548.548 0 0 1-.22-.15.548.548 0 0 1-.122-.247h-.404c.025.18.087.33.185.446a.862.862 0 0 0 .37.257c.148.054.31.082.483.082Zm2.754-.05a1.795 1.795 0 0 1-.23.013.913.913 0 0 1-.4-.071.397.397 0 0 1-.199-.21.913.913 0 0 1-.056-.343V90.03h-.405v-.33h.416l.109-.736h.327v.734h.562v.332h-.562v1.573c0 .09.01.155.028.197.019.041.05.068.094.079a.76.76 0 0 0 .182.017h.272v.303a.673.673 0 0 1-.138.03Zm2.411 0V89.44l1.869 2.788h.398V88.69h-.446v2.75l-1.84-2.75h-.426v3.537h.445Zm4.708-.115c-.168.11-.376.165-.623.165-.23 0-.43-.05-.602-.15a1.007 1.007 0 0 1-.4-.442 1.608 1.608 0 0 1-.142-.712c0-.264.044-.495.133-.694.088-.2.217-.354.388-.464.171-.11.379-.165.623-.165.23 0 .429.051.599.153.169.102.3.251.393.449.093.197.14.437.14.721 0 .258-.043.484-.129.68a1.032 1.032 0 0 1-.38.459Zm-.623-.192a.612.612 0 0 1-.402-.128.74.74 0 0 1-.227-.344 1.536 1.536 0 0 1-.072-.485c0-.2.027-.372.081-.516a.698.698 0 0 1 .237-.329.633.633 0 0 1 .383-.113c.164 0 .297.042.399.127.102.085.176.2.222.343.047.145.07.307.07.488 0 .198-.026.368-.079.512a.7.7 0 0 1-.234.33.615.615 0 0 1-.378.115Zm3.232-1.558-.539 1.866h-.436l-.769-2.529h.412l.571 1.944h.039l.561-1.944h.337l.583 1.94h.038l.547-1.94h.417l-.754 2.529h-.439l-.568-1.866Z" fill="#36536B"/></g><defs><linearGradient id="a" x1="4.844" y1="0" x2="4.844" y2="5.915" gradientUnits="userSpaceOnUse"><stop stop-color="#454545"/><stop offset=".226" stop-color="#999"/><stop offset="1" stop-color="#fff"/></linearGradient><linearGradient id="b" x1="125.799" y1="41.159" x2="121.223" y2="41.159" gradientUnits="userSpaceOnUse"><stop stop-color="#fff" stop-opacity=".01"/><stop offset=".222" stop-color="#BABABA"/><stop offset=".547" stop-color="#fff" stop-opacity=".01"/><stop offset="1" stop-color="#fff" stop-opacity=".01"/></linearGradient><linearGradient id="c" x1="1.242" y1="41.034" x2="5.825" y2="41.034" gradientUnits="userSpaceOnUse"><stop stop-color="#fff" stop-opacity=".01"/><stop offset=".222" stop-color="#BABABA"/><stop offset=".547" stop-color="#fff" stop-opacity=".01"/><stop offset="1" stop-color="#fff" stop-opacity=".01"/></linearGradient><linearGradient id="e" x1="7.44" y1="6" x2="7.44" y2="227.264" gradientUnits="userSpaceOnUse"><stop stop-color="#9CB6CD"/><stop offset=".421" stop-color="#9AB3CA"/><stop offset=".717" stop-color="#557496"/><stop offset="1" stop-color="#475178"/></linearGradient><clipPath id="f"><path fill="#fff" transform="translate(10.244 80)" d="M0 0h105v43H0z"/></clipPath></defs></svg>