<svg width="114" height="22" fill="none" xmlns="http://www.w3.org/2000/svg"><path fill-rule="evenodd" clip-rule="evenodd" d="M12.444.273v2.865l.566-.036c7.283-.248 12.04 5.99 12.04 5.99s-5.453 6.653-11.131 6.653c-.496 0-.98-.047-1.464-.13v1.776c.402.047.815.082 1.216.082 5.288 0 9.113-2.71 12.82-5.907.276.225.94.591 1.633.974.843.465 1.728.954 2.013 1.24-3.517 2.96-11.72 5.339-16.371 5.339-.449 0-.874-.024-1.299-.071v2.498h20.09V.273H12.444Zm0 6.345V4.701h.011V4.7c.185-.012.37-.023.555-.023 5.241-.166 8.676 4.522 8.676 4.522s-3.706 5.161-7.684 5.161c-.532 0-1.05-.083-1.547-.248V8.287c1.923.234 2.402 1.045 3.466 2.849l.205.348 2.727-2.297S16.858 6.57 13.506 6.57a7.977 7.977 0 0 0-1.062.047Zm0 0v1.657h-.012c-2.042-.248-3.648 1.67-3.648 1.67s.91 3.231 3.66 4.166v1.516c-4.887-.876-6.245-5.978-6.245-5.978s2.35-2.605 6.245-3.03Zm.011-1.918h-.011v.001c-5.788.455-8.676 4.734-8.676 4.734s2.207 7.15 8.676 7.956v1.657C3.626 18.219.486 9.104.486 9.104s5.548-5.445 11.97-5.966V4.7Zm25.858-.336V18.26h3.99V7.471l3.111.011c1.022 0 1.734.247 2.22.765.63.66.88 1.73.88 3.671v6.343h3.87V10.59c0-5.484-3.526-6.225-6.97-6.225h-7.1Zm31.111.023v13.886h3.954V4.387h-3.954Zm6.377 13.886V4.387h5.545c3.159 0 5.272.377 6.721 2.319.82 1.082 1.282 2.824 1.282 4.777 0 2.13-.546 4.083-1.4 4.966-1.2 1.26-2.316 1.824-5.736 1.824H75.8ZM79.719 7.4h1.698c2.47 0 4.061 1.094 4.061 3.942s-1.59 3.954-4.06 3.954h-1.699V7.4Zm-19.295 7.99 3.3-11.003h4.038l-4.56 13.886h-5.7L52.99 4.387h4.275l3.158 11.003Zm30.778 2.883h3.954V4.387h-3.954v13.886Zm5.569-.012 5.521-13.874h5.284l5.57 13.862h-4.24l-.831-2.447h-6.531l-.878 2.46h-3.895Zm8.086-11.344 2.399 6.496h-4.869l2.47-6.496Z" fill="#36536B"/></svg>