<svg width="109" height="15" fill="none" xmlns="http://www.w3.org/2000/svg"><path fill-rule="evenodd" clip-rule="evenodd" d="M47.025 9.271h7.106l-3.758-5.99-6.897 10.83h-3.138l8.389-13.009A1.988 1.988 0 0 1 50.373.26c.653 0 1.26.307 1.614.821l8.422 13.03H57.27l-1.48-2.419h-7.196l-1.57-2.42Zm32.605 2.42V.39h-2.664v12.406c0 .34.133.668.387.92s.597.394.973.394h12.147l1.57-2.42H79.63ZM40.25 5.033c0 2.563-2.1 4.632-4.687 4.632h-1.216l5.35 4.446h-3.87l-7.95-6.865 7.509.01a2.225 2.225 0 0 0 2.232-2.222 2.226 2.226 0 0 0-2.232-2.223h-8.814v11.3H23.91V.391h11.653c2.586 0 4.686 2.08 4.686 4.642ZM7.518 14.111c-3.824 0-6.926-3.066-6.926-6.855C.593 3.468 3.695.391 7.519.391h8.05c3.823 0 6.924 3.077 6.924 6.865 0 3.789-3.1 6.855-6.925 6.855h-8.05Zm12.353-6.855c0 2.453-2.006 4.435-4.483 4.435H7.697c-2.476 0-4.483-1.982-4.483-4.435 0-2.452 2.007-4.445 4.483-4.445h7.692c2.477 0 4.483 1.993 4.483 4.445Zm46.097 6.855c-3.824 0-6.93-3.066-6.93-6.855 0-3.788 3.106-6.865 6.93-6.865h9.56l-1.558 2.42h-7.825c-2.476 0-4.488 1.993-4.488 4.445 0 2.453 2.012 4.435 4.488 4.435h9.605l-1.57 2.42h-8.212ZM94.23 8.46a4.47 4.47 0 0 0 4.31 3.23h9.605l-1.569 2.42h-8.212c-3.825 0-6.93-3.066-6.93-6.855 0-3.789 3.105-6.866 6.93-6.866h9.571l-1.58 2.42h-7.814a4.482 4.482 0 0 0-4.31 3.23h12.953l-1.57 2.42H94.231Z" fill="#36536B"/></svg>